# xmcd
#
# Track frame offsets: 
#        150
#        17761
#        30464
#        43291
#        57903
#        71974
#        83692
#        97808
#        110419
#        124254
#        135138
#        149497
#        165876
#        183988
#        197303
#
# Disc length: 2779 seconds
#
# Revision: 0
# Processed by: cddbd v1.5.2PL0 Copyright (c) Steve Scherf et al.
# Submitted via: ExactAudioCopy v0.99pb4
#
DISCID=c00ad90f
DTITLE=Steve Cropper - Dedicated A Salute To The 5 Royales
DYEAR=2011
DGENRE=Soul
TTITLE0=Thirty Second Lover (with Steve Winwood)
TTITLE1=Don't Be Ashamed (with Bettye LaVette and Willie Jones)
TTITLE2=Baby Don't Do It (with BB King and Shemekia Copeland)
TTITLE3=Dedicated to the One I Love (with Lucinda Williams and Dan Penn)
TTITLE4=My Sugar Sugar (with John Popper)
TTITLE5=Right Around the Corner (with Delbert McClinton)
TTITLE6=Help Me Somebody (Steve Cropper instrumental)
TTITLE7=I Do (with Brian May)
TTITLE8=Messin' Up (with Sharon Jones)
TTITLE9=Say It (with Bettye LaVette)
TTITLE10=The Slummer the Slum (with Buddy Miller)
TTITLE11=Someone Made You for Me (with Dan Penn)
TTITLE12=Think (Steve Cropper instrumental)
TTITLE13=Come On and Save Me (with Dylan Leblanc and Sharon Jones)
TTITLE14=When I Get Like This (with Lucinda Williams)
EXTD=
EXTT0=
EXTT1=
EXTT2=
EXTT3=
EXTT4=
EXTT5=
EXTT6=
EXTT7=
EXTT8=
EXTT9=
EXTT10=
EXTT11=
EXTT12=
EXTT13=
EXTT14=
PLAYORDER=
